<?xml version="1.0" encoding="utf-8"?>
<!-- Generator: Adobe Illustrator 16.0.4, SVG Export Plug-In . SVG Version: 6.00 Build 0)  -->
<!DOCTYPE svg PUBLIC "-//W3C//DTD SVG 1.1//EN" "http://www.w3.org/Graphics/SVG/1.1/DTD/svg11.dtd">
<svg version="1.1" id="Layer_1" xmlns="http://www.w3.org/2000/svg" xmlns:xlink="http://www.w3.org/1999/xlink" x="0px" y="0px"
	 width="292px" height="456px" viewBox="0 0 292 456" enable-background="new 0 0 292 456" xml:space="preserve">
<g>
	<path d="M265.369,120.44c-1.357,39.132,0.062,69.743-6.145,99.841c-5.553,26.919-10.984,53.873-17.182,80.646
		c-8.665,37.444-7.266,75.128-3.627,112.875c0.73,7.599-1.66,12.906-7.227,17.406c-10.414,8.42-22.818,12.559-35.574,15.011
		c-34.732,6.679-69.539,7.209-103.922-2.188c-8.085-2.21-15.911-5.991-23.256-10.118c-8.067-4.531-11.91-11.542-11.074-21.611
		c1.706-20.571,2.579-41.224,3.397-61.856c0.761-19.178-4.074-37.713-7.684-56.314c-5.393-27.788-12.764-55.247-16.959-83.196
		c-3.273-21.801-3.277-44.123-4.23-66.234c-1.568-36.382,1.508-72.586,5.205-108.731c0.272-2.674,1.969-5.641,3.875-7.641
		C54.354,14.284,72.178,9.438,90.3,6.294c40.202-6.974,80.555-7.273,120.78,0.076c12.818,2.341,25.217,6.288,36.164,13.743
		c7.645,5.205,12.414,11.694,12.934,21.694C261.684,70.913,263.975,99.978,265.369,120.44z M256.803,119.742
		c-1.551-21.771-3.818-50.992-5.564-80.244c-0.375-6.313-2.752-10.852-8.104-13.138c-9.602-4.101-19.259-8.675-29.365-10.876
		c-39.332-8.566-79.052-8.163-118.756-2.71C80.629,14.75,66.495,18.066,53.637,25.31c-5.911,3.33-9.384,7.396-10.048,15.136
		c-3.039,35.375-5.609,70.718-4.539,106.269c0.782,25.982,0.832,51.972,7.004,77.481c4.425,18.288,8.671,36.634,12.417,55.071
		c5.794,28.521,12.852,56.909,10.518,86.469c-1.206,15.271-1.578,30.613-2.892,45.876c-0.666,7.735,2.647,12.646,9.082,15.536
		c6.502,2.923,13.201,5.737,20.104,7.38c29.882,7.107,60.095,7.029,90.358,2.853c11.922-1.646,23.551-4.594,34.258-10.369
		c7.33-3.953,9.379-8.088,8.5-16.306c-0.389-3.642-0.502-7.312-0.836-10.958c-3.43-37.414-2.069-74.479,6.887-111.175
		c5.646-23.132,10.296-46.503,15.637-69.711C257.037,188.645,254.865,157.85,256.803,119.742z"/>
	<path fill="#E8D59D" d="M256.803,119.742c-1.938,38.108,0.234,68.903-6.719,99.119c-5.341,23.208-9.99,46.581-15.637,69.711
		c-8.957,36.694-10.316,73.761-6.887,111.175c0.334,3.647,0.447,7.317,0.836,10.958c0.879,8.218-1.17,12.353-8.5,16.306
		c-10.707,5.775-22.336,8.725-34.258,10.369c-30.264,4.178-60.477,4.256-90.358-2.853c-6.903-1.643-13.603-4.457-20.104-7.379
		c-6.435-2.893-9.748-7.802-9.082-15.537c1.314-15.263,1.686-30.604,2.892-45.876c2.334-29.56-4.724-57.946-10.518-86.47
		c-3.746-18.438-7.992-36.781-12.417-55.07c-6.172-25.51-6.222-51.5-7.004-77.481c-1.07-35.551,1.5-70.895,4.539-106.269
		c0.665-7.739,4.138-11.806,10.048-15.136c12.859-7.244,26.993-10.56,41.376-12.536c39.704-5.453,79.424-5.855,118.756,2.71
		c10.106,2.201,19.764,6.776,29.365,10.876c5.352,2.286,7.729,6.825,8.104,13.138C252.984,68.75,255.252,97.971,256.803,119.742z
		 M46.216,63.4c-0.212,2.184-0.461,3.636-0.479,5.091c-0.295,24.646-1.248,49.308-0.624,73.93
		c0.522,20.598,1.444,41.387,4.782,61.665c5.271,32.016,12.878,63.641,19.178,95.492c4.495,22.729,8.207,45.527,5.965,68.931
		c-1.364,14.245-1.446,28.608-2.436,42.896c-0.391,5.629,1.789,9.749,6.556,11.758c7.312,3.08,14.81,6.192,22.537,7.727
		c28.053,5.569,56.354,5.192,84.54,1.144c8.801-1.264,17.531-4.007,25.875-7.176c8.783-3.336,10.396-7.008,9.805-16.187
		c-0.857-13.3-2.021-26.589-2.455-39.899c-0.373-11.468-1.32-23.185,0.461-34.397c4.52-28.437,10.359-56.666,15.805-84.952
		c3.68-19.121,8.834-38.051,11.123-57.328c4.27-35.973,3.014-72.182,1.489-108.321c-0.265-6.265-0.667-12.524-1.019-19.033
		c-1.26,0.176-1.891,0.227-2.506,0.354c-13.98,2.907-27.846,6.693-41.965,8.559c-31.957,4.225-64.112,4.688-96.253,2.175
		C86.256,74.236,65.573,74.066,46.216,63.4z M152.611,49.909c8.492-0.396,23.882-0.338,39.074-2.039
		c16.006-1.791,31.836-5.188,47.701-8.115c1.551-0.287,2.801-2.207,4.19-3.368c-1.729-0.253-3.556-0.994-5.173-0.675
		c-8.325,1.64-16.535,3.935-24.9,5.301c-30.57,4.991-61.396,4.851-92.229,3.895c-21.021-0.652-41.857-2.9-62.314-8.099
		c-2.442-0.62-5.161-0.154-7.751-0.192c0.452,4.326,4.347,3.521,6.841,4.187C86.801,48.484,116.238,49.714,152.611,49.909z"/>
	<path d="M46.216,63.4c19.357,10.667,40.04,10.836,60.379,12.426c32.142,2.513,64.297,2.05,96.252-2.175
		c14.119-1.866,27.984-5.652,41.967-8.559c0.613-0.128,1.244-0.179,2.504-0.354c0.353,6.509,0.756,12.768,1.02,19.033
		c1.523,36.139,2.779,72.349-1.49,108.321c-2.287,19.277-7.441,38.207-11.123,57.328c-5.443,28.286-11.283,56.516-15.804,84.952
		c-1.782,11.214-0.834,22.931-0.461,34.397c0.435,13.312,1.597,26.601,2.455,39.899c0.593,9.179-1.021,12.851-9.804,16.187
		c-8.346,3.169-17.075,5.912-25.877,7.176c-28.184,4.05-56.485,4.427-84.539-1.144c-7.729-1.534-15.226-4.646-22.537-7.727
		c-4.767-2.009-6.946-6.129-6.556-11.758c0.99-14.287,1.071-28.65,2.436-42.896c2.242-23.403-1.47-46.202-5.965-68.931
		c-6.3-31.852-13.908-63.477-19.178-95.492c-3.338-20.277-4.259-41.066-4.782-61.665c-0.624-24.622,0.328-49.285,0.624-73.93
		C45.754,67.036,46.003,65.584,46.216,63.4z"/>
	<path d="M152.611,49.909c-36.374-0.195-65.811-1.425-94.56-9.105c-2.495-0.666-6.39,0.139-6.841-4.187
		c2.59,0.038,5.309-0.428,7.751,0.192c20.457,5.198,41.293,7.446,62.314,8.099c30.833,0.956,61.659,1.097,92.229-3.894
		c8.365-1.366,16.575-3.662,24.9-5.301c1.617-0.319,3.443,0.422,5.173,0.675c-1.39,1.161-2.64,3.081-4.19,3.368
		c-15.865,2.927-31.695,6.325-47.701,8.115C176.493,49.571,161.104,49.513,152.611,49.909z"/>
</g>
<text transform="matrix(1 0 0 1 93.5 255.5)" fill="#FFFFFF" font-family="'MyriadPro-Regular'" font-size="100">+1</text>
</svg>
